<?xml version="1.0" standalone="no"?>
<!DOCTYPE svg PUBLIC "-//W3C//DTD SVG 20010904//EN"
 "http://www.w3.org/TR/2001/REC-SVG-20010904/DTD/svg10.dtd">
<svg version="1.0" xmlns="http://www.w3.org/2000/svg"
 width="700.000000pt" height="700.000000pt" viewBox="0 0 700.000000 700.000000"
 preserveAspectRatio="xMidYMid meet">
<metadata>
Created by potrace 1.11, written by Peter Selinger 2001-2013
</metadata>
<g transform="translate(0.000000,700.000000) scale(0.100000,-0.100000)"
fill="#000000" stroke="none">
<path d="M3270 6989 c-1001 -63 -1943 -569 -2553 -1371 -793 -1043 -937 -2448
-372 -3624 737 -1536 2446 -2314 4091 -1863 799 219 1505 730 1972 1426 683
1020 778 2343 247 3449 -513 1070 -1510 1797 -2685 1959 -223 31 -461 39 -700
24z m1759 -1349 c265 -44 477 -233 546 -490 53 -195 13 -496 -99 -735 -157
-335 -440 -543 -811 -594 -42 -6 -186 -11 -320 -11 l-243 0 -9 -42 c-5 -24
-52 -256 -104 -515 l-94 -473 -236 0 -236 0 -53 -60 c-94 -109 -239 -212 -370
-264 -158 -63 -200 -69 -530 -75 l-305 -6 -97 -480 c-53 -264 -99 -495 -103
-512 l-6 -33 -281 0 -280 0 5 22 c3 13 133 659 288 1436 l282 1413 556 -3 556
-4 88 -27 c49 -15 105 -36 125 -46 71 -36 162 -111 209 -172 40 -51 49 -58 55
-42 4 10 82 394 173 853 91 459 168 843 171 853 5 16 39 17 532 17 314 0 553
-4 591 -10z"/>
<path d="M4380 5197 c0 -8 -181 -904 -186 -919 -5 -17 7 -18 199 -18 300 0
339 11 452 125 122 122 189 300 189 500 1 119 -20 189 -71 246 -55 61 -97 69
-360 69 -123 0 -223 -1 -223 -3z"/>
<path d="M2352 3314 c-51 -253 -92 -465 -92 -471 0 -10 52 -13 228 -13 188 1
235 4 274 18 139 50 256 201 310 399 16 59 21 109 22 203 1 110 -2 131 -22
176 -28 61 -62 96 -117 120 -33 15 -79 19 -275 22 l-236 4 -92 -458z"/>
</g>
</svg>
